<svg width="287" height="356" viewBox="0 0 287 356" fill="none" xmlns="http://www.w3.org/2000/svg">
<path d="M73.6424 311.064C52.6353 303.726 32.3202 294.944 11.63 287.298C9.19726 286.399 6.70803 285.674 4.63798 283.886C0.811409 280.58 0.14473 275.988 0.146374 271.151C0.154871 246.149 -0.0492118 221.143 0.270497 196.146C0.78683 155.774 0.3479 115.404 0.542786 75.034C0.573006 68.7733 3.69338 64.7196 9.25281 63.9677C11.759 63.6288 14.1791 64.4864 16.5314 65.3628C36.1629 72.6769 55.5379 80.7427 74.9756 88.6217C88.2279 93.9935 101.575 99.1013 114.517 105.349C123.968 109.911 131.81 116.608 138.512 125.006C139.386 126.102 140.069 127.458 141.348 128.02C142.195 127.936 142.419 127.249 142.604 126.676C146.64 114.159 154.555 104.543 162.857 95.2264C176.214 80.2364 190.972 66.9256 205.785 53.6781C216.824 43.8053 227.899 33.9754 238.597 23.669C240.133 22.19 241.663 20.6632 243.371 19.4425C247.281 16.6472 251.683 18.1557 253.577 22.7833C254.593 25.2649 255.047 27.8363 255.134 30.5737C255.715 48.9794 251.929 66.7067 248.186 84.4639C245.816 95.7067 243.053 106.93 243.765 118.632C244.315 127.682 246.389 136.463 248.117 145.3C250.322 156.583 253.282 167.683 255.168 179.045C256.134 184.87 254.346 189.675 250.321 193.442C243.499 199.825 235.848 205.026 228.555 210.736C213.617 222.43 198.305 233.577 184.195 246.468C165.968 263.12 154.142 283.99 148.675 309.027C147.853 312.788 147.508 316.671 146.967 320.501C146.935 320.731 147.115 320.995 147.211 321.285C148.445 321.327 149.02 320.259 149.75 319.579C159.801 310.216 170.996 303.306 184.243 300.766C188.464 299.956 192.702 299.317 197.008 299.319C218.748 299.33 240.488 299.32 262.228 299.316C265.842 299.315 266.082 299.088 266.081 295.275C266.077 251.382 266.175 207.488 265.981 163.596C265.928 151.564 265.649 139.524 265.796 127.493C265.888 119.953 262.817 117.427 257.427 115.877C253.209 114.663 252.944 114.3 254.016 109.643C255.047 105.162 256.265 100.731 257.311 96.254C257.778 94.253 259.011 93.9805 260.443 94.5638C265.417 96.5908 270.517 98.3786 275.257 100.931C282.507 104.834 285.992 111.548 285.995 120.295C286.013 168.819 286.024 217.342 286.035 265.865C286.038 279.57 286.041 293.275 286.03 306.98C286.022 316.38 281.931 320.824 273.302 320.827C251.132 320.834 228.945 321.432 206.798 320.673C184.497 319.909 166.963 328.948 153.058 347.236C151.917 348.736 150.676 350.165 149.369 351.498C143.892 357.085 137.32 356.638 132.628 350.354C127.717 343.775 122.522 337.506 116.421 332.155C108.853 325.518 100.204 321.092 91.0835 317.618C85.3421 315.432 79.5821 313.302 73.6424 311.064ZM19.9773 180.331C19.6491 208.473 20.5256 236.606 20.4588 264.745C20.4546 266.517 20.7822 267.596 22.5262 268.273C45.0403 277.019 67.4633 286.043 90.1423 294.285C103.556 299.16 116.51 304.926 127.719 314.512C128.187 314.913 128.654 315.353 129.36 315.174C130.267 314.458 130.053 313.362 130.053 312.385C130.032 261.193 130.072 210 129.887 158.808C129.857 150.556 127.1 143.095 121.694 136.937C115.133 129.462 106.796 125.067 98.1325 121.457C73.2512 111.089 48.2764 100.981 23.3321 90.7885C22.5026 90.4496 21.6716 89.7354 20.3584 90.5981C20.8958 120.209 19.9386 149.988 19.9773 180.331Z" fill="#3b82f6"/>
<path d="M212.979 0.466614C216.906 1.83449 217.845 3.37311 217.999 7.59481C218.206 13.2441 217.55 18.8467 217.403 24.4754C217.288 28.8706 214.259 31.1066 211.271 33.0714C209.441 34.2749 205.533 30.9645 205.344 27.9674C204.888 20.7662 205.313 13.5528 206.068 6.40599C206.537 1.96878 208.476 0.61138 212.979 0.466614Z" fill="#3b82f6"/>
<path d="M186.106 33.6069C188.328 35.6313 190.638 37.2823 191.377 40.4258C192.009 43.1095 191.56 45.4212 189.588 47.1817C187.596 48.9599 185.231 49.1882 183.133 47.6346C177.761 43.6569 172.802 39.0939 168.151 34.1842C166.365 32.2992 166.491 28.9072 167.93 26.7267C169.336 24.5974 172.047 23.6821 174.608 24.5344C175.928 24.9737 177.111 25.7102 178.186 26.6626C180.768 28.9498 183.37 31.2099 186.106 33.6069Z" fill="#3b82f6"/>
</svg>
